<svg xmlns="http://www.w3.org/2000/svg" style="display:none">
    <symbol id="facebook" viewBox="0 0 7 15">
        <path d="M5.72197 2.49023H7V0.105469C6.77992 0.0732422 6.02159 0 5.13864 0C3.29583 0 2.03371 1.24219 2.03371 3.52441V5.625H0V8.29102H2.03371V15H4.52614V8.29102H6.47765L6.78788 5.625H4.52614V3.78809C4.52614 3.01758 4.7197 2.49023 5.72197 2.49023Z" fill="currentColor"/>
    </symbol>

    <symbol id="twitter" viewBox="0 0 17 14">
        <path d="M15.2512 3.44097C15.262 3.59198 15.262 3.74302 15.262 3.89403C15.262 8.49997 11.7566 13.8071 5.3498 13.8071C3.37598 13.8071 1.54239 13.2354 0 12.243C0.280443 12.2754 0.550063 12.2862 0.841297 12.2862C2.46994 12.2862 3.9692 11.736 5.16644 10.7976C3.63484 10.7652 2.35131 9.76205 1.90909 8.38133C2.12482 8.41367 2.34052 8.43526 2.56705 8.43526C2.87983 8.43526 3.19264 8.39209 3.48384 8.31662C1.88754 7.99299 0.690268 6.59072 0.690268 4.8972V4.85407C1.15404 5.11295 1.69338 5.27475 2.26499 5.2963C1.32662 4.67065 0.711848 3.60277 0.711848 2.39464C0.711848 1.74745 0.884391 1.15417 1.18641 0.636404C2.90138 2.75061 5.47922 4.1313 8.36981 4.28234C8.31589 4.02346 8.28352 3.75381 8.28352 3.48414C8.28352 1.56407 9.8367 0 11.7674 0C12.7704 0 13.6764 0.420684 14.3128 1.10025C15.1002 0.949244 15.8552 0.657987 16.5239 0.258885C16.265 1.06791 15.715 1.74748 14.9923 2.17892C15.6934 2.10345 16.3729 1.90925 16.9985 1.6396C16.524 2.32993 15.9308 2.94475 15.2512 3.44097Z" fill="currentColor"/>
    </symbol>

    <symbol id="instagram" viewBox="0 0 15 15">
        <path d="M7.50523 3.62495C5.37594 3.62495 3.65845 5.32827 3.65845 7.43999C3.65845 9.55171 5.37594 11.255 7.50523 11.255C9.63452 11.255 11.352 9.55171 11.352 7.43999C11.352 5.32827 9.63452 3.62495 7.50523 3.62495ZM7.50523 9.92026C6.12923 9.92026 5.00432 8.80796 5.00432 7.43999C5.00432 6.07202 6.12588 4.95972 7.50523 4.95972C8.88458 4.95972 10.0061 6.07202 10.0061 7.43999C10.0061 8.80796 8.88123 9.92026 7.50523 9.92026ZM12.4066 3.4689C12.4066 3.96362 12.0049 4.35874 11.5094 4.35874C11.0105 4.35874 10.6121 3.9603 10.6121 3.4689C10.6121 2.97749 11.0139 2.57905 11.5094 2.57905C12.0049 2.57905 12.4066 2.97749 12.4066 3.4689ZM14.9544 4.37202C14.8975 3.18003 14.6229 2.12417 13.7424 1.25425C12.8653 0.384326 11.8006 0.112061 10.5987 0.0522949C9.35999 -0.0174316 5.64713 -0.0174316 4.40839 0.0522949C3.20983 0.10874 2.14519 0.381006 1.26468 1.25093C0.384175 2.12085 0.112993 3.17671 0.05273 4.3687C-0.0175767 5.59722 -0.0175767 9.27944 0.05273 10.508C0.109645 11.7 0.384175 12.7558 1.26468 13.6257C2.14519 14.4957 3.20648 14.7679 4.40839 14.8277C5.64713 14.8974 9.35999 14.8974 10.5987 14.8277C11.8006 14.7712 12.8653 14.499 13.7424 13.6257C14.6196 12.7558 14.8941 11.7 14.9544 10.508C15.0247 9.27944 15.0247 5.60054 14.9544 4.37202ZM13.3541 11.8261C13.0929 12.4769 12.5874 12.9783 11.9279 13.2406C10.9402 13.6291 8.59666 13.5394 7.50523 13.5394C6.4138 13.5394 4.0669 13.6257 3.08261 13.2406C2.42641 12.9816 1.92088 12.4802 1.65639 11.8261C1.26468 10.8466 1.35508 8.52241 1.35508 7.43999C1.35508 6.35757 1.26803 4.03003 1.65639 3.05386C1.91753 2.40308 2.42307 1.90171 3.08261 1.6394C4.07025 1.25093 6.4138 1.34058 7.50523 1.34058C8.59666 1.34058 10.9436 1.25425 11.9279 1.6394C12.584 1.89839 13.0896 2.39976 13.3541 3.05386C13.7458 4.03335 13.6554 6.35757 13.6554 7.43999C13.6554 8.52241 13.7458 10.85 13.3541 11.8261Z" fill="currentColor"/>
    </symbol>

    <symbol id="arrow" viewBox="0 0 20 11" fill="none">
        <path d="M18.6499 5.1499H0.649902M5.1499 9.6499L0.649902 5.1499L5.1499 0.649902" stroke="currentColor" stroke-width="1.3" stroke-linecap="round" stroke-linejoin="round"/>
    </symbol>

    <symbol id="design" viewBox="0 0 33 33" fill="none">
        <path d="M24.5189 11.7499H25.9951C27.5612 11.7499 29.0631 12.4031 30.1704 13.5658C31.2778 14.7286 31.8999 16.3056 31.8999 17.9499C31.8999 19.5942 31.2778 21.1712 30.1704 22.334C29.0631 23.4967 27.5612 24.1499 25.9951 24.1499H24.5189M24.5189 11.7499H0.899902V25.6999C0.899902 27.3442 1.52201 28.9212 2.62937 30.084C3.73672 31.2467 5.23862 31.8999 6.80466 31.8999H18.6142C20.1802 31.8999 21.6821 31.2467 22.7895 30.084C23.8968 28.9212 24.5189 27.3442 24.5189 25.6999V11.7499ZM6.80466 0.899902V5.5499M12.7094 0.899902V5.5499M18.6142 0.899902V5.5499" stroke="currentColor" stroke-width="1.8" stroke-linecap="round" stroke-linejoin="round"/>
    </symbol>

    <symbol id="strategy" viewBox="0 0 33 32" fill="none">
        <path d="M16.3999 19.9908C18.7346 19.9908 20.6272 18.1592 20.6272 15.8999C20.6272 13.6406 18.7346 11.809 16.3999 11.809C14.0652 11.809 12.1726 13.6406 12.1726 15.8999C12.1726 18.1592 14.0652 19.9908 16.3999 19.9908Z" stroke="currentColor" stroke-width="1.8" stroke-linecap="round" stroke-linejoin="round"/>
        <path d="M26.8272 19.9908C26.6396 20.4021 26.5837 20.8583 26.6665 21.3007C26.7494 21.7431 26.9673 22.1512 27.2922 22.4726L27.3767 22.5544C27.6387 22.8077 27.8466 23.1085 27.9884 23.4396C28.1303 23.7707 28.2033 24.1256 28.2033 24.484C28.2033 24.8424 28.1303 25.1973 27.9884 25.5284C27.8466 25.8595 27.6387 26.1602 27.3767 26.4135C27.115 26.6671 26.8042 26.8683 26.4621 27.0055C26.1199 27.1428 25.7532 27.2134 25.3829 27.2134C25.0125 27.2134 24.6458 27.1428 24.3037 27.0055C23.9615 26.8683 23.6507 26.6671 23.389 26.4135L23.3044 26.3317C22.9724 26.0174 22.5506 25.8065 22.0935 25.7263C21.6364 25.6461 21.1649 25.7002 20.7399 25.8817C20.3231 26.0546 19.9677 26.3416 19.7173 26.7075C19.467 27.0733 19.3326 27.502 19.3308 27.9408V28.1726C19.3308 28.8959 19.0339 29.5896 18.5054 30.1011C17.9769 30.6126 17.2601 30.8999 16.5126 30.8999C15.7652 30.8999 15.0484 30.6126 14.5199 30.1011C13.9914 29.5896 13.6944 28.8959 13.6944 28.1726V28.0499C13.6835 27.5985 13.5326 27.1608 13.2612 26.7936C12.9898 26.4264 12.6105 26.1467 12.1726 25.9908C11.7476 25.8093 11.2762 25.7551 10.8191 25.8354C10.362 25.9156 9.94018 26.1264 9.60808 26.4408L9.52354 26.5226C9.26181 26.7762 8.95099 26.9774 8.60887 27.1146C8.26675 27.2519 7.90003 27.3225 7.52967 27.3225C7.15932 27.3225 6.7926 27.2519 6.45048 27.1146C6.10836 26.9774 5.79754 26.7762 5.53581 26.5226C5.27379 26.2693 5.06592 25.9686 4.9241 25.6375C4.78227 25.3064 4.70928 24.9515 4.70928 24.5931C4.70928 24.2347 4.78227 23.8798 4.9241 23.5487C5.06592 23.2176 5.27379 22.9168 5.53581 22.6635L5.62036 22.5817C5.9452 22.2603 6.16312 21.8522 6.246 21.4098C6.32888 20.9674 6.27293 20.5112 6.08536 20.0999C5.90674 19.6966 5.61015 19.3526 5.2321 19.1103C4.85406 18.868 4.41106 18.738 3.95763 18.7363H3.71808C2.97066 18.7363 2.25384 18.4489 1.72533 17.9375C1.19682 17.426 0.899902 16.7323 0.899902 16.009C0.899902 15.2857 1.19682 14.592 1.72533 14.0805C2.25384 13.5691 2.97066 13.2817 3.71808 13.2817H3.8449C4.3113 13.2712 4.76364 13.1251 5.1431 12.8624C5.52256 12.5998 5.81159 12.2327 5.97263 11.809C6.1602 11.3977 6.21615 10.9415 6.13327 10.4991C6.05039 10.0567 5.83248 9.64856 5.50763 9.32717L5.42308 9.24536C5.16106 8.99207 4.95319 8.69128 4.81137 8.36019C4.66955 8.02911 4.59655 7.67422 4.59655 7.31581C4.59655 6.95741 4.66955 6.60251 4.81137 6.27143C4.95319 5.94034 5.16106 5.63956 5.42308 5.38627C5.68482 5.13269 5.99563 4.93153 6.33775 4.79428C6.67987 4.65704 7.04659 4.58639 7.41695 4.58639C7.7873 4.58639 8.15402 4.65704 8.49614 4.79428C8.83826 4.93153 9.14908 5.13269 9.41081 5.38627L9.49536 5.46808C9.82745 5.78245 10.2492 5.99334 10.7063 6.07354C11.1634 6.15375 11.6349 6.0996 12.0599 5.91808H12.1726C12.5894 5.74523 12.9448 5.45821 13.1952 5.09236C13.4456 4.7265 13.5799 4.29779 13.5817 3.85899V3.62718C13.5817 2.90386 13.8786 2.21016 14.4071 1.6987C14.9357 1.18724 15.6525 0.899902 16.3999 0.899902C17.1473 0.899902 17.8641 1.18724 18.3927 1.6987C18.9212 2.21016 19.2181 2.90386 19.2181 3.62718V3.7499C19.2199 4.1887 19.3542 4.61741 19.6046 4.98326C19.855 5.34911 20.2104 5.63613 20.6272 5.80899C21.0522 5.99051 21.5236 6.04466 21.9807 5.96445C22.4378 5.88425 22.8596 5.67336 23.1917 5.35899L23.2763 5.27718C23.538 5.0236 23.8488 4.82244 24.1909 4.68519C24.5331 4.54795 24.8998 4.4773 25.2701 4.4773C25.6405 4.4773 26.0072 4.54795 26.3493 4.68519C26.6914 4.82244 27.0023 5.0236 27.264 5.27718C27.526 5.53047 27.7339 5.83125 27.8757 6.16234C28.0175 6.49342 28.0905 6.84831 28.0905 7.20672C28.0905 7.56513 28.0175 7.92002 27.8757 8.2511C27.7339 8.58219 27.526 8.88298 27.264 9.13627L27.1794 9.21808C26.8546 9.53946 26.6367 9.94765 26.5538 10.39C26.4709 10.8324 26.5269 11.2886 26.7144 11.6999V11.809C26.8931 12.2123 27.1897 12.5563 27.5677 12.7986C27.9457 13.0409 28.3887 13.1709 28.8422 13.1726H29.0817C29.8291 13.1726 30.546 13.46 31.0745 13.9714C31.603 14.4829 31.8999 15.1766 31.8999 15.8999C31.8999 16.6232 31.603 17.3169 31.0745 17.8284C30.546 18.3398 29.8291 18.6272 29.0817 18.6272H28.9549C28.5015 18.6289 28.0585 18.7589 27.6804 19.0012C27.3024 19.2435 27.0058 19.5875 26.8272 19.9908Z" stroke="currentColor" stroke-width="1.8" stroke-linecap="round" stroke-linejoin="round"/>
    </symbol>

    <symbol id="brand" viewBox="0 0 33 32" fill="none">
        <path d="M16.3999 9.8999C18.968 9.8999 21.0499 7.88518 21.0499 5.3999C21.0499 2.91462 18.968 0.899902 16.3999 0.899902C13.8318 0.899902 11.7499 2.91462 11.7499 5.3999C11.7499 7.88518 13.8318 9.8999 16.3999 9.8999ZM16.3999 9.8999V30.8999M16.3999 30.8999C12.289 30.8999 8.34656 29.3195 5.43975 26.5065C2.53293 23.6935 0.899902 19.8781 0.899902 15.8999H5.5499M16.3999 30.8999C20.5108 30.8999 24.4532 29.3195 27.3601 26.5065C30.2669 23.6935 31.8999 19.8781 31.8999 15.8999H27.2499" stroke="currentColor" stroke-width="1.8" stroke-linecap="round" stroke-linejoin="round"/>
    </symbol>

    <symbol id="content" viewBox="0 0 34 31" fill="none">
        <path d="M16.8999 7.34435C16.8999 5.63517 16.2256 3.996 15.0254 2.78744C13.8252 1.57887 12.1973 0.899902 10.4999 0.899902H0.899902V25.0666H12.0999C13.3729 25.0666 14.5938 25.5758 15.494 26.4822C16.3942 27.3886 16.8999 28.618 16.8999 29.8999M16.8999 7.34435V29.8999M16.8999 7.34435C16.8999 5.63517 17.5742 3.996 18.7744 2.78744C19.9747 1.57887 21.6025 0.899902 23.2999 0.899902H32.8999V25.0666H21.6999C20.4269 25.0666 19.206 25.5758 18.3058 26.4822C17.4056 27.3886 16.8999 28.618 16.8999 29.8999" stroke="currentColor" stroke-width="1.8" stroke-linecap="round" stroke-linejoin="round"/>
    </symbol>

    <symbol id="quality" viewBox="0 0 71 71" fill="none">
        <path d="M64.8105 17.7881V52.2109L35 69.4229L5.18945 52.2109V17.7881L35 0.576172L64.8105 17.7881Z" fill="white" stroke="currentColor"/>
        <path d="M18.2861 5.68702H52.709L69.9209 35.4976L52.709 65.3081H18.2861L1.07422 35.4976L18.2861 5.68702Z" stroke="currentColor"/>
        <path d="M39.3323 36.4715C41.5391 35.1686 43 32.8995 43 30.3182C43 26.2765 39.4183 23 35 23C30.5817 23 27 26.2765 27 30.3182C27 34.3599 30.5817 37.6364 35 37.6364C36.5965 37.6364 38.0838 37.2086 39.3323 36.4715ZM39.3323 36.4715L40.7143 46L35 42.8636L29.2857 46L30.6686 36.4759M39.3323 36.4715L39.3314 36.4655" stroke="currentColor" stroke-width="1.5" stroke-linecap="round" stroke-linejoin="round"/>
    </symbol>

    <symbol id="service" viewBox="0 0 71 71" fill="none">
        <path d="M64.8105 17.7881V52.2109L35 69.4229L5.18945 52.2109V17.7881L35 0.576172L64.8105 17.7881Z" fill="white" stroke="currentColor"/>
        <path d="M18.2861 5.68702H52.709L69.9209 35.4976L52.709 65.3081H18.2861L1.07422 35.4976L18.2861 5.68702Z" stroke="currentColor"/>
        <path d="M24 41.5V34.5C24 31.7152 25.1062 29.0445 27.0754 27.0754C29.0445 25.1062 31.7152 24 34.5 24C37.2848 24 39.9555 25.1062 41.9246 27.0754C43.8938 29.0445 45 31.7152 45 34.5V41.5M45 42.6667C45 43.2855 44.7542 43.879 44.3166 44.3166C43.879 44.7542 43.2855 45 42.6667 45H41.5C40.8812 45 40.2877 44.7542 39.8501 44.3166C39.4125 43.879 39.1667 43.2855 39.1667 42.6667V39.1667C39.1667 38.5478 39.4125 37.9543 39.8501 37.5168C40.2877 37.0792 40.8812 36.8333 41.5 36.8333H45V42.6667ZM24 42.6667C24 43.2855 24.2458 43.879 24.6834 44.3166C25.121 44.7542 25.7145 45 26.3333 45H27.5C28.1188 45 28.7123 44.7542 29.1499 44.3166C29.5875 43.879 29.8333 43.2855 29.8333 42.6667V39.1667C29.8333 38.5478 29.5875 37.9543 29.1499 37.5168C28.7123 37.0792 28.1188 36.8333 27.5 36.8333H24V42.6667Z" stroke="currentColor" stroke-width="1.5" stroke-linecap="round" stroke-linejoin="round"/>
    </symbol>

    <symbol id="people" viewBox="0 0 71 71" fill="none">
        <path d="M64.8105 17.7881V52.2109L35 69.4229L5.18945 52.2109V17.7881L35 0.576172L64.8105 17.7881Z" fill="white" stroke="currentColor"/>
        <path d="M18.2861 5.68702H52.709L69.9209 35.4976L52.709 65.3081H18.2861L1.07422 35.4976L18.2861 5.68702Z" stroke="currentColor"/>
        <path d="M44.3036 27.6797C43.766 27.1472 43.1278 26.7248 42.4253 26.4366C41.7228 26.1483 40.9699 26 40.2095 26C39.4491 26 38.6961 26.1483 37.9936 26.4366C37.2912 26.7248 36.6529 27.1472 36.1153 27.6797L34.9997 28.7844L33.8841 27.6797C32.7983 26.6046 31.3256 26.0006 29.79 26.0006C28.2544 26.0006 26.7817 26.6046 25.6958 27.6797C24.61 28.7549 24 30.2131 24 31.7336C24 33.2541 24.61 34.7124 25.6958 35.7875L34.9997 45L44.3036 35.7875C44.8414 35.2553 45.268 34.6233 45.5591 33.9277C45.8502 33.2321 46 32.4866 46 31.7336C46 30.9807 45.8502 30.2352 45.5591 29.5396C45.268 28.844 44.8414 28.212 44.3036 27.6797Z" stroke="currentColor" stroke-width="1.5" stroke-linecap="round" stroke-linejoin="round"/>
    </symbol>
</svg>



